<svg xmlns="http://www.w3.org/2000/svg" xmlns:xlink="http://www.w3.org/1999/xlink" preserveAspectRatio="xMidYMid" width="12.125" height="9.281" viewBox="0 0 12.125 9.281">
  <defs>
    <style>
      .cls-1 {
        fill: #31ab5c;
        fill-rule: evenodd;
      }
    </style>
  </defs>
  <path d="M12.117,1.804 C12.117,1.609 12.039,1.413 11.898,1.273 L10.835,0.210 C10.695,0.069 10.499,-0.009 10.304,-0.009 C10.109,-0.009 9.914,0.069 9.773,0.210 L4.648,5.343 L2.351,3.038 C2.210,2.898 2.015,2.819 1.820,2.819 C1.624,2.819 1.429,2.898 1.289,3.038 L0.226,4.101 C0.085,4.241 0.007,4.437 0.007,4.632 C0.007,4.827 0.085,5.023 0.226,5.163 L3.054,7.991 L4.117,9.054 C4.257,9.194 4.453,9.273 4.648,9.273 C4.843,9.273 5.038,9.194 5.179,9.054 L6.242,7.991 L11.898,2.335 C12.039,2.195 12.117,1.999 12.117,1.804 Z" class="cls-1"/>
</svg>
