<svg version="1.1" xmlns="http://www.w3.org/2000/svg" xmlns:xlink="http://www.w3.org/1999/xlink" width="15" height="15" viewBox="0 0 15 15">
<g id="Close_icon">
<path id="Close_icon" d="M8.811,7.496 C8.811,7.496 14.718,1.594 14.718,1.594 C15.085,1.227 15.085,0.633 14.718,0.266 C14.351,-0.100 13.757,-0.100 13.390,0.266 C13.390,0.266 7.482,6.169 7.482,6.169 C7.482,6.169 1.574,0.266 1.574,0.266 C1.207,-0.100 0.613,-0.100 0.246,0.266 C-0.121,0.633 -0.121,1.227 0.246,1.594 C0.246,1.594 6.154,7.496 6.154,7.496 C6.154,7.496 0.246,13.399 0.246,13.399 C-0.121,13.765 -0.121,14.360 0.246,14.726 C0.429,14.909 0.670,15.001 0.910,15.001 C1.150,15.001 1.391,14.909 1.574,14.726 C1.574,14.726 7.482,8.824 7.482,8.824 C7.482,8.824 13.390,14.726 13.390,14.726 C13.573,14.909 13.814,15.001 14.054,15.001 C14.294,15.001 14.535,14.909 14.718,14.726 C15.085,14.360 15.085,13.765 14.718,13.399 C14.718,13.399 8.811,7.496 8.811,7.496 z" fill="#333333" />
</g>
</svg>
