                                                <svg width="68" height="58" viewBox="0 0 78 68" fill="none" xmlns="http://www.w3.org/2000/svg">
                                                    <g clip-path="url(#clip0_1_62)">
                                                    <path d="M13.4112 67.2049C16.8467 64.3989 20.1169 61.4409 23.2217 58.3191C27.8329 53.9092 31.6745 48.7732 34.5906 43.1197C34.8857 42.5117 35.1809 42.1493 35.9364 42.1843C48.2497 42.6286 60.563 43.0028 72.534 46.2882C74.1514 46.7208 75.6743 47.4574 77.2563 48.0186C78.0708 48.3226 78.1889 48.7552 77.7285 49.5034C74.0609 55.4351 70.4168 61.3785 66.7964 67.3336C66.3124 68.1286 65.7221 68.0818 64.9902 68.0117C53.4351 66.9132 41.8303 66.4098 30.2225 66.5034C24.6384 66.5385 19.0543 66.8893 13.4112 67.2049Z" fill="#E51368"/>
                                                    <path d="M27.6843 1.47318C29.5614 8.61692 31.9933 15.1176 34.1184 21.7235C34.9839 24.7302 36.0933 27.6627 37.4357 30.4924C38.6163 32.8308 37.8608 34.5144 36.7746 36.3384C33.0504 42.862 28.6165 48.9625 23.5523 54.5309C19.8578 58.5276 15.9149 62.2919 11.7466 65.8019C11.0029 66.4216 10.4008 66.7256 9.83412 65.6265C6.682 59.6052 3.5535 53.5722 0.389586 47.5859C0.268893 47.4385 0.181384 47.2672 0.132921 47.0836C0.084457 46.9 0.0761548 46.7082 0.108568 46.5211C0.140981 46.3341 0.213363 46.156 0.32087 45.9989C0.428377 45.8418 0.568529 45.7092 0.731949 45.61C9.1165 37.8383 15.9664 28.5883 20.9314 18.3329C23.3997 13.3728 25.4147 8.20383 26.9523 2.8879C27.1537 2.39585 27.3986 1.92242 27.6843 1.47318Z" fill="#FDDD17"/>
                                                    <path d="M77.9646 45.6919C74.0805 44.8384 70.2437 43.9381 66.3832 43.1781C60.3876 42.0183 54.2991 41.3923 48.1907 41.3074C47.7457 41.3259 47.3045 41.2193 46.918 41C46.5316 40.7807 46.2156 40.4576 46.0067 40.0681C38.6744 28.4378 33.2363 15.737 29.8919 2.43191C29.278 0.0935364 29.2662 0.0935363 31.7454 0.0935363C37.8962 0.0935363 44.0587 0.0935353 50.2095 -0.0467672C50.4374 -0.0865396 50.6712 -0.0797947 50.8964 -0.0269465C51.1216 0.0259016 51.3336 0.123741 51.5193 0.260574C51.705 0.397407 51.8605 0.570352 51.9763 0.768811C52.0921 0.96727 52.1658 1.18706 52.1928 1.41472C57.0804 17.456 64.7541 31.9422 76.5951 44.0901C77.0674 44.6162 77.7993 44.9085 77.9646 45.6919Z" fill="#177FB8"/>
                                                    </g>
                                                    <defs>
                                                    <clipPath id="clip0_1_62">
                                                    <rect width="78" height="68" fill="white"/>
                                                    </clipPath>
                                                    </defs>
                                                </svg>
