<?xml version="1.0" encoding="UTF-8"?>
<svg width="958px" height="381px" viewBox="0 0 958 381" version="1.1" xmlns="http://www.w3.org/2000/svg" xmlns:xlink="http://www.w3.org/1999/xlink">
    <!-- Generator: Sketch 61.2 (89653) - https://sketch.com -->
    <title>LP2</title>
    <desc>Created with Sketch.</desc>
    <g id="Page-1" stroke="none" stroke-width="1" fill="none" fill-rule="evenodd">
        <g id="LP2" transform="translate(0.000000, -1.000000)">
            <rect id="Rectangle" fill="#E9EFF4" fill-rule="nonzero" x="280" y="109.607266" width="99.776549" height="247.130053"></rect>
            <rect id="Rectangle" fill="#FFFFFF" fill-rule="nonzero" x="304.924663" y="130.097708" width="48.5362709" height="17.2790195"></rect>
            <rect id="Rectangle-Copy-21" fill="#FFFFFF" fill-rule="nonzero" x="304.870984" y="167.438263" width="48.5362709" height="17.2790195"></rect>
            <rect id="Rectangle-Copy-22" fill="#FFFFFF" fill-rule="nonzero" x="304.924663" y="204.778818" width="48.5362709" height="17.2790195"></rect>
            <rect id="Rectangle-Copy-23" fill="#FFFFFF" fill-rule="nonzero" x="304.870984" y="242.119373" width="48.5362709" height="17.2790195"></rect>
            <rect id="Rectangle-Copy-24" fill="#FFFFFF" fill-rule="nonzero" x="304.870984" y="279.459928" width="48.5362709" height="17.2790195"></rect>
            <rect id="Rectangle-Copy-25" fill="#FFFFFF" fill-rule="nonzero" x="304.870984" y="316.800482" width="48.5362709" height="17.2790195"></rect>
            <rect id="Rectangle" fill="#E9EFF4" fill-rule="nonzero" x="12.2157599" y="64.8469372" width="87.2842405" height="280.890382"></rect>
            <rect id="Rectangle" fill="#FFFFFF" fill-rule="nonzero" x="44.10788" y="89.1475176" width="23.5" height="38.2117997"></rect>
            <rect id="Rectangle-Copy-21" fill="#FFFFFF" fill-rule="nonzero" x="44.10788" y="152.080583" width="23.5" height="38"></rect>
            <circle id="Oval" fill="#9DD7DF" fill-rule="nonzero" cx="478.297297" cy="304.368129" r="8.5"></circle>
            <circle id="Oval" fill="#FF719C" fill-rule="nonzero" cx="477.261201" cy="186.106684" r="4.5"></circle>
            <circle id="Oval-Copy" fill="#FFE8A7" fill-rule="nonzero" cx="555.304439" cy="210.982247" r="4.5"></circle>
            <g id="Group-47" transform="translate(116.500000, 3.737319)" fill-rule="nonzero">
                <rect id="Rectangle" fill="#E9EFF4" x="-9.09494702e-13" y="-9.09494702e-13" width="154.872647" height="352.107066"></rect>
                <rect id="Rectangle" fill="#FFFFFF" x="32.887115" y="31.5189022" width="25" height="37.0586495"></rect>
                <rect id="Rectangle-Copy-22" fill="#FFFFFF" x="93.887115" y="31.5189022" width="25" height="37.0586495"></rect>
                <rect id="Rectangle-Copy-21" fill="#FFFFFF" x="32.887115" y="100.723488" width="25" height="37.0586495"></rect>
                <rect id="Rectangle-Copy-23" fill="#FFFFFF" x="93.887115" y="100.723488" width="25" height="37.0586495"></rect>
            </g>
            <g id="Group-23-Copy" transform="translate(72.500000, 137.737319)" fill-rule="nonzero">
                <rect id="Rectangle" fill="#00B0C7" x="169.716418" y="99.8049051" width="16.4179104" height="81.5883643"></rect>
                <g id="Group-19">
                    <path d="M3.49925801,73.0597015 L224.875278,73.0597015 C225.427563,73.0597015 225.875278,72.6119862 225.875278,72.0597015 C225.875278,71.7235246 225.706362,71.4098435 225.42569,71.2248079 L117.922946,0.352628727 C117.596939,0.137705288 117.175652,0.132197602 116.844138,0.338524925 L2.97086102,71.2107041 C2.50197269,71.5025297 2.35843499,72.1192102 2.6502606,72.5880985 C2.83280143,72.8813944 3.15379649,73.0597015 3.49925801,73.0597015 Z" id="Path-325" fill="#BEDFF4"></path>
                    <rect id="Rectangle" fill="#FDD66F" x="0" y="84.2751795" width="228.208955" height="15.2995848" rx="2"></rect>
                    <rect id="Rectangle" fill="#00B0C7" x="38.3731343" y="99.8049051" width="16.4179104" height="81.5883643"></rect>
                    <rect id="Rectangle" fill="#00B0C7" x="71.2089552" y="99.8049051" width="16.4179104" height="81.5883643"></rect>
                    <rect id="Rectangle" fill="#00B0C7" x="104.044776" y="99.8049051" width="16.4179104" height="81.5883643"></rect>
                    <rect id="Rectangle" fill="#00B0C7" x="136.880597" y="99.8049051" width="16.4179104" height="81.5883643"></rect>
                    <rect id="Rectangle" fill="#BEDFF4" x="8" y="171.567164" width="215.074627" height="47.6119403"></rect>
                </g>
            </g>
            <polygon id="Path-326" fill="#FFFFFF" fill-rule="nonzero" points="12.0000005 199 79.5 253.5 79.5 345.5 12.0000005 345.5"></polygon>
            <g id="Group-47" transform="translate(-0.000000, 235.990441)">
                <g id="Oval-2" fill="#D6E7D4" fill-rule="nonzero">
                    <path d="M25.8214008,102.674897 C66.7508045,102.582708 46.7629507,79.6897125 46.7629507,51.3370453 C46.7629507,22.9843781 37.3870994,-4.68958206e-13 25.8214008,-4.68958206e-13 C14.2557023,-4.68958206e-13 4.87985104,22.9843781 4.87985104,51.3370453 C4.87985104,79.6897125 -15.1080028,102.765473 25.8214008,102.674897 Z" id="Oval"></path>
                </g>
                <line x1="27.2508045" y1="136.082708" x2="27.2508045" y2="97.0827075" id="Path-327" stroke="#D8D8D8" stroke-width="6" stroke-linecap="round"></line>
            </g>
            <polygon id="Rectangle" fill="#B5CEDF" fill-rule="nonzero" points="16.5156031 356.737319 957.515602 356.737319 957.515602 381.192263 16.5156031 381.192263"></polygon>
            <g id="Group-23" transform="translate(314.276549, 0.737319)">
                <g id="Group-6" transform="translate(0.000000, 13.000000)" fill-rule="nonzero" stroke="#000000" stroke-width="0.66">
                    <path d="M56.6680067,13.9795394 C57.0972252,19.3572512 57.8912596,22.6874637 59.0501098,23.9701768 C60.2855155,24.9353816 62.5463278,26.4101561 65.8325466,28.3945005 C68.1163401,29.1154387 70.2763435,28.9850211 72.3125567,28.0032477 C73.8542334,25.5031395 76.2240211,20.494254 79.4219201,12.9765911 C80.7885858,8.11013021 81.2506091,4.97231537 80.80799,3.56314654 C80.80799,3.56314654 70.723451,2.26268107 68.723451,1.26268107 C68.552714,1.28364494 64.7006508,-0.234725065 62.223451,0.762681071 C61.1854538,1.11177791 60.3600773,2.30323938 60.723451,5.26268107 C59.723451,6.26268107 58.723451,8.26268107 57.723451,11.2626811 C56.8115762,8.55488811 55.5142728,7.09247376 53.8315407,6.87543803 C52.5794692,7.02917307 51.5760109,7.32569332 51.6847922,9.6231508 C51.7796776,12.1482983 53.4407491,13.6004278 56.6680067,13.9795394 Z" id="Path-279" fill="#FFFFFF"></path>
                    <path d="M82.8636917,72.8788378 L94.8955665,133.528224 L82.3964254,118.33718 L74.1858878,88.7658941 L73.1846028,76.9507304 C75.5321363,74.0773142 78.7330274,72.6760737 82.8636917,72.8788378 Z" id="Path-284" fill="#FFFFFF" transform="translate(84.040085, 103.193902) rotate(10.000000) translate(-84.040085, -103.193902) "></path>
                    <path d="M47.5386751,37.5239082 C37.6329022,41.7931161 30.3881855,48.5113806 25.8045249,57.6787016 C26.405296,64.0201737 26.0715343,65.2217158 28.2743614,76.8366225 C30.4771886,88.4515293 36.0176326,100.46695 36.0176326,101.468235 C36.0176326,102.46952 39.9415465,108.83124 40.5347286,116.299857 C38.9994248,120.438502 39.4887542,130.705759 41.0240579,135.31167 C42.0475938,138.382278 43.2046343,139.939832 44.4951795,139.984334 C45.2962075,132.953088 53.1284818,126.72287 67.9920023,121.293679 C68.926535,120.959918 78.9716856,117.861514 93.5904475,122.267169 C93.6571999,122.133664 92.9291231,115.883338 87.8179376,107.962552 C85.3481011,104.558183 77.7378436,83.5786086 75.4015118,72.4977206 C75.4682641,72.5644729 78.2718623,67.6915523 86.0151335,68.626085 C86.0818858,68.4925803 82.0767455,48.7338884 77.6043389,44.7287482 C77.8045959,44.7955005 70.0613248,35.5169256 56.3103432,36.7184676 C56.2213401,36.7629692 53.2974507,37.0314494 47.5386751,37.5239082 Z" id="Path-283" fill="#FFFFFF" transform="translate(59.699472, 88.297704) rotate(10.000000) translate(-59.699472, -88.297704) "></path>
                    <path d="M29.2699957,54.2294608 C30.1155253,64.9543364 33.9426593,74.2106605 40.7513977,81.9984332 C40.7513977,82.0651856 47.2931268,71.7853256 54.1686176,73.454134 C54.2353699,73.3873817 50.096725,60.5709329 42.9542249,53.4951851 C37.1824893,50.6588214 32.6210796,50.9035799 29.2699957,54.2294608 Z" id="Path-285" fill="#FFFFFF" transform="translate(41.719704, 66.767828) rotate(10.000000) translate(-41.719704, -66.767828) "></path>
                    <path d="M37.4217655,88.8728278 C45.2985414,99.9982174 50.8389854,105.894674 54.0430976,106.562197 C54.1098499,106.695702 75.6041026,107.563482 100.502725,92.8779681 C100.569477,92.7444634 106.176673,88.8728278 111.049594,86.736753 C115.922515,84.6006782 120.394921,82.7983651 121.262702,77.3246734 C121.262702,77.1244164 120.528426,73.1860285 119.059874,71.8509817 C119.059874,71.9177341 114.720972,77.9254445 109.51429,78.9934819 C109.647795,79.0602342 109.180528,76.256636 110.115061,75.455608 C109.914804,75.1218463 106.37693,77.3246734 104.507865,80.5287856 C102.638799,83.7328978 101.570762,85.6687156 97.7658787,87.2707717 C93.9609955,88.8728278 71.0649437,90.6083886 67.7940791,91.7431783 C65.6135028,92.4997048 63.6554342,93.2117298 61.9198734,93.8792531 L49.5039386,80.0615193 C44.4574312,80.4073055 40.7796688,84.2334124 37.4217655,88.8728278 Z" id="Path-286" fill="#FFFFFF" transform="translate(79.342234, 89.233960) rotate(10.000000) translate(-79.342234, -89.233960) "></path>
                    <polygon id="Path-287" fill="#999494" transform="translate(116.673640, 74.335667) rotate(10.000000) translate(-116.673640, -74.335667) " points="118.142191 63.888926 112.6685 85.249674 115.405345 84.3151413 120.67878 63.4216596"></polygon>
                    <path d="M120.679805,64.3444807 L128.489828,67.4818406 L124.417936,83.969668 C123.803061,82.1809358 123.440755,80.1387034 122.148356,79.029995 C119.620936,82.6569799 117.558142,83.7000583 115.40637,85.2379624 L120.679805,64.3444807 Z" id="Path-288" fill="#CECCCC" transform="translate(121.948099, 74.791222) rotate(10.000000) translate(-121.948099, -74.791222) "></path>
                    <path d="M87.2360623,127.457394 C93.3304387,152.798896 95.5252922,176.969087 93.8206227,199.967967 C93.7957791,200.14097 90.2599861,227.29212 86.2381941,244.170312 C86.2160727,243.987141 80.9167374,250.034505 70.3401885,262.312404 L56.2773896,275.767965 C40.3798278,285.645151 29.5153559,292.509272 23.6839738,296.360328 C21.9105321,297.581796 19.284913,299.510666 15.8071163,302.14694 C13.7344043,295.335913 13.0251563,289.652534 13.6793725,285.096802 C13.7539034,284.577794 50.0199243,237.399045 63.0479723,234.689904 C63.0396911,234.747571 64.4526261,197.08799 67.2867774,121.711158 C73.5620446,121.945323 79.9194365,122.548175 87.2360623,127.457394 Z" id="Path-290" fill="#FFFFFF"></path>
                    <path d="M85.1804854,345.326234 C84.7588056,350.591221 85.7903866,354.201534 88.2752286,356.157173 C88.4287961,356.258997 91.1225978,357.801973 93.7072297,355.819354 C96.2918616,353.836736 96.016648,353.021974 97.8689145,353.009906 C99.721181,352.997838 101.983315,356.370289 106.586523,353.999508 C111.189731,351.628728 116.333643,349.786697 117.01806,348.149129 C117.474339,347.057417 116.534761,346.05343 114.199328,345.137169 C103.699733,343.282137 97.9967211,342.256764 97.0902926,342.061052 C95.7306497,341.767482 92.5666888,341.152998 91.7988514,340.643874 C90.6362198,341.35424 88.3222886,341.976187 84.8570579,342.509716 L85.1804854,345.326234 Z" id="Path-291-Copy" fill="#FFFFFF"></path>
                    <path d="M34.43523,132.478321 C34.6915358,138.508714 34.7436498,142.839096 34.5915718,145.469465 C34.2549774,151.291263 32.6465631,156.349638 34.5915718,160.101885 C37.854753,166.397106 41.0555949,170.817316 44.1940975,173.362516 C55.1684127,202.017672 62.1797807,222.899355 65.2282016,236.007564 C73.0016748,251.097248 46.9376763,272.131352 82.8900684,342.123544 C82.8859819,342.657804 87.634095,341.635348 94.4930419,339.806295 C89.3864184,320.649178 88.6243131,279.038233 92.2067263,214.97346 C82.4598744,160.50865 74.9912433,129.414757 69.8008329,121.691782 C58.8265177,119.862729 47.0379834,123.458242 34.43523,132.478321 Z" id="Path-289" fill="#FFFFFF"></path>
                    <path d="M10.2016604,288.240654 C5.63067869,287.683759 2.49626005,289.046124 0.798404485,292.327747 C0.710001701,292.530557 -0.629586198,296.088143 1.09169319,299.501555 C2.81297257,302.914966 3.52033599,302.551503 3.53081319,304.997711 C3.54129039,307.443919 0.613380166,310.431421 2.67165561,316.510678 C4.72993105,322.589935 6.32915403,329.383277 7.75086568,330.287157 C8.69867344,330.889744 9.57031928,329.648884 10.3658032,326.564579 C11.9763139,312.69822 12.8665266,305.1665 13.0364415,303.969419 C13.2913138,302.173798 13.8247994,297.995292 14.2668134,296.981242 C13.6500848,295.445805 13.1101198,292.389897 12.6469183,287.813517 L10.2016604,288.240654 Z" id="Path-291" fill="#FFFFFF"></path>
                    <path d="M55.3371689,26.9034222 L56.9283943,38.5946124 C56.2040373,41.8114376 59.0586841,44.1442072 65.4923346,45.5929211 C73.0643636,46.6046524 73.0226112,43.5186439 65.3670774,36.3348956 L63.5679052,28.2752116 L55.3371689,26.9034222 Z" id="Path-318" fill="#FFFFFF" transform="translate(63.238691, 36.341845) rotate(21.000000) translate(-63.238691, -36.341845) "></path>
                </g>
                <path d="M57.723451,25.2626811 C59.723451,26.7626811 60.3982579,14.7745208 68.3982579,15.7745208 C76.3982579,16.7745208 84.8982579,20.7745208 88.8982579,16.2745208 C92.8982579,11.7745208 99.723451,-3.73731893 73.3982579,1.2745208 C53.223451,4.26268107 53.223451,7.76268107 51.8982579,12.7745208 C51.577727,16.331371 51.5313898,18.9410659 52.723451,20.2626811 C55.723451,19.2626811 56.6734441,21.8501586 57.723451,25.2626811 Z" id="Path-401" fill="#262525" fill-rule="nonzero"></path>
                <path d="M64.9714635,21.9413013 C66.736732,20.9325764 68.1237287,20.6803952 69.1324536,21.1847576 C70.1411784,21.68912 70.3933596,21.8152106 69.8889972,21.5630294" id="Path-365" stroke="#000000" stroke-linecap="round"></path>
                <path d="M74.144552,22.7190786 C75.9098206,21.7103537 77.2968172,21.4581725 78.3055421,21.9625349 C79.314267,22.4668974 79.5664482,22.592988 79.0620858,22.3408068" id="Path-365-Copy" stroke="#000000" stroke-linecap="round" transform="translate(76.729409, 22.214716) rotate(13.000000) translate(-76.729409, -22.214716) "></path>
                <circle id="Oval" fill="#000000" fill-rule="nonzero" cx="67.5563209" cy="23.2876183" r="1"></circle>
                <circle id="Oval-Copy-4" fill="#000000" fill-rule="nonzero" cx="76.3532488" cy="24.2745208" r="1"></circle>
                <path d="M73.300031,25.767441 L74.122901,29.4703558 C73.025741,30.0189358 72.0657261,30.1560807 71.2428561,29.8817908" id="Path-366" stroke="#000000" stroke-linecap="round"></path>
                <path d="M66.7170714,33.1732706 C69.3228262,36.8039557 71.9285811,36.1071575 74.534336,33.1732706 L66.7170714,33.1732706 Z" id="Path-367" stroke="#000000" stroke-width="0.66" fill="#FFFFFF" fill-rule="nonzero"></path>
                <path d="M73.723451,135.262681 L90.9917351,219.14188 C81.1172956,168.398233 73.985756,140.28351 69.5971162,134.79771 C69.2608769,134.875248 70.6363218,135.030238 73.723451,135.262681 Z" id="Path-371" fill="#000000" fill-rule="nonzero"></path>
                <polygon id="Path-372" fill="#000000" fill-rule="nonzero" points="79.223451 87.2626811 80.223451 103.262681 79.4715557 103.117217 77.8258158 88.3055576"></polygon>
            </g>
        </g>
    </g>
</svg>