<svg xmlns="http://www.w3.org/2000/svg" width="43" height="32" viewBox="0 0 43 32">
  <g fill="none" transform="translate(.406)">
    <rect width="31.5" height="31.5" x="5.25" fill="#ECEFF1"/>
    <polygon fill="#CFD8DC" points="21 19.063 36.75 31.5 36.75 6.946"/>
    <path fill="#F44336" d="M38.0625,0 L36.75,0 L21,12.43725 L5.25,0 L3.9375,0 C1.764,0 0,1.764 0,3.9375 L0,27.5625 C0,29.736 1.764,31.5 3.9375,31.5 L5.25,31.5 L5.25,6.94575 L21,19.060125 L36.75,6.943125 L36.75,31.5 L38.0625,31.5 C40.236,31.5 42,29.736 42,27.5625 L42,3.9375 C42,1.764 40.236,0 38.0625,0 Z"/>
  </g>
</svg>
