<svg xmlns="http://www.w3.org/2000/svg" width="19" height="30" viewBox="0 0 19 30">
  <path d="M17.1155738,0 L1.87265246,0 C0.844409836,0 0.00797377049,0.836498361 0.00797377049,1.86474098 L0.00797377049,27.5891213 C0.00797377049,28.6173016 0.844472131,29.4538623 1.87271475,29.4538623 L17.1155738,29.4538623 C18.1438164,29.4538623 18.9803148,28.6173639 18.9803148,27.5891213 L18.9803148,1.86474098 C18.9803148,0.836498361 18.1438164,0 17.1155738,0 Z M0.9424,4.68683279 L18.0458885,4.68683279 L18.0458885,24.1656951 L0.9424,24.1656951 L0.9424,4.68683279 Z M1.87265246,0.93442623 L17.1155738,0.93442623 C17.6285115,0.93442623 18.0458885,1.35174098 18.0458885,1.86474098 L18.0458885,4.06388197 L0.9424,4.06388197 L0.9424,1.86474098 C0.9424,1.35174098 1.35971475,0.93442623 1.87265246,0.93442623 Z M17.1155738,28.5193738 L1.87265246,28.5193738 C1.35971475,28.5193738 0.942337705,28.102059 0.942337705,27.589059 L0.942337705,24.7885836 L18.0458262,24.7885836 L18.0458262,27.589059 C18.0458262,28.102059 17.6285115,28.5193738 17.1155738,28.5193738 Z"/>
  <path d="M9.49414426 25.2016C8.65035738 25.2016 7.96392787 25.8880918 7.96392787 26.7318787 7.96392787 27.5756656 8.65041967 28.2620951 9.49414426 28.2620951 10.3378689 28.2620951 11.0243607 27.5756033 11.0243607 26.7318787 11.0243607 25.8881541 10.3379311 25.2016 9.49414426 25.2016L9.49414426 25.2016zM9.49414426 27.6391443C8.99385246 27.6391443 8.58687869 27.2321082 8.58687869 26.7318787 8.58687869 26.2315869 8.99385246 25.8245508 9.49414426 25.8245508 9.99443607 25.8245508 10.4014098 26.2315869 10.4014098 26.7318787 10.4014098 27.2321082 9.99443607 27.6391443 9.49414426 27.6391443zM7.37611148 2.96804918L11.612177 2.96804918C11.7842361 2.96804918 11.9236525 2.82857049 11.9236525 2.65657377 11.9236525 2.48457705 11.7842361 2.34509836 11.612177 2.34509836L7.37611148 2.34509836C7.20405246 2.34509836 7.06463607 2.48457705 7.06463607 2.65657377 7.06463607 2.82857049 7.20405246 2.96804918 7.37611148 2.96804918zM6.25498689 2.96804918C6.33659344 2.96804918 6.4169541 2.93503279 6.47488852 2.87709836 6.53282295 2.81854098 6.5664623 2.73880328 6.5664623 2.65657377 6.5664623 2.57434426 6.53282295 2.49460656 6.47488852 2.43604918 6.4168918 2.37811475 6.33653115 2.34509836 6.25498689 2.34509836 6.17275738 2.34509836 6.09295738 2.37811475 6.0344623 2.43604918 5.97652787 2.49398361 5.94351148 2.57434426 5.94351148 2.65657377 5.94351148 2.73880328 5.97652787 2.81854098 6.0344623 2.87709836 6.09239672 2.93503279 6.17275738 2.96804918 6.25498689 2.96804918z"/>
</svg>
