<?xml version="1.0" encoding="UTF-8"?>
<svg width="679px" height="464px" viewBox="0 0 679 464" version="1.1" xmlns="http://www.w3.org/2000/svg" xmlns:xlink="http://www.w3.org/1999/xlink">
    <!-- Generator: Sketch 60.1 (88133) - https://sketch.com -->
    <title>Group 46</title>
    <desc>Created with Sketch.</desc>
    <g id="Final-Landing" stroke="none" stroke-width="1" fill="none" fill-rule="evenodd">
        <g id="Onemoeny-Website-homepage--Copy-10" transform="translate(-350.000000, -3438.000000)">
            <g id="Group-46" transform="translate(350.913524, 3437.990206)">
                <path d="M418.086476,79.0097938 L412.086476,67.0097938 C413.934669,63.4828242 418.44881,61.3204455 425.6289,60.5226577 C425.6289,60.5226577 426.426688,62.1182332 428.022263,65.3093842 L426.825582,76.6778596 L423.235537,83.8579494 L418.086476,79.0097938 Z" id="Path-399" fill="#000000"></path>
                <path d="M286.688682,438.471575 C355.24016,447.783503 405.899629,456.004899 438.667088,463.135761 C438.667088,463.135761 464.543446,457.61563 516.296163,446.575368 C506.391527,435.77031 500.088576,421.813777 497.387312,404.705768 C496.48689,393.900711 496.48689,373.191016 497.387312,342.576685 C495.586469,328.169941 490.634151,315.11383 482.530357,303.40835 C474.426564,291.702871 467.673403,270.092755 462.270874,238.578003 C459.569609,218.76873 458.218977,207.06325 458.218977,203.461564 C458.218977,198.059035 443.362022,189.955242 436.608861,194.007139 C429.8557,198.059035 417.70001,206.162829 417.70001,212.91599 C417.70001,217.418097 410.946848,240.378846 397.440526,281.798234 L286.688682,438.471575 Z" id="Path-397" fill="#FFD6D4" transform="translate(401.492423, 328.023900) rotate(-6.000000) translate(-401.492423, -328.023900) "></path>
                <g id="Group-15" transform="translate(190.074570, 80.282968)">
                    <rect id="Rectangle" fill="#B5CEDF" x="0" y="0" width="218.404959" height="383" rx="25"></rect>
                    <polygon id="Path-395" fill="#DEF0FF" points="17.4090909 45.8966942 17.4090909 329.190083 204.161157 329.190083 204.161157 45.8966942"></polygon>
                    <rect id="Rectangle" fill="#A7B7C4" x="79.1322314" y="22.2464859" width="63.3057851" height="9.49586777" rx="1.5"></rect>
                </g>
                <circle id="Oval" fill="#9DD7DF" cx="523.268744" cy="341.432683" r="11.1894089"></circle>
                <circle id="Oval-Copy-2" fill="#9DD7DF" cx="118.977599" cy="204.366715" r="5.5"></circle>
                <path d="M421.543238,185.968648 C448.589969,247.73195 467.717527,244.293832 494.674355,233.021311 C551.139133,209.409469 579.550465,220.423916 592.543238,282.968648" id="Path" stroke="#00B0C7" stroke-linecap="round"></path>
                <ellipse id="Oval" fill="#FFE8A7" cx="141.873963" cy="4.88888889" rx="5.5" ry="4.88888889"></ellipse>
                <circle id="Oval" fill="#FF719C" cx="530.543238" cy="254.860646" r="5.5"></circle>
                <circle id="Oval-Copy" fill="#FFE8A7" cx="668.586476" cy="249.736209" r="5.5"></circle>
                <polygon id="Rectangle" fill="#FFE3E1" points="1.87128004e-12 428.862975 678 428.862975 678 463.317919 1.87128004e-12 463.317919"></polygon>
                <line x1="538.925024" y1="160.468648" x2="523.043238" y2="160.468648" id="Path-10" stroke="#FFFFFF" stroke-width="4.22"></line>
                <path d="M277.586476,265.710522 L277.586476,225.710522 C277.586476,216.873966 284.74992,209.710522 293.586476,209.710522 L314.086476,209.710522 C322.923032,209.710522 330.086476,216.873966 330.086476,225.710522 L330.086476,265.710522 L330.086476,265.710522" id="Path-390" stroke="#FBD75A" stroke-width="9" stroke-linecap="round"></path>
                <rect id="Rectangle" fill="#FDD66F" x="260.62707" y="244.930828" width="86.4188119" height="91.5940008"></rect>
                <path d="M303.836476,285.61904 C309.911609,285.61904 314.836476,290.543907 314.836476,296.61904 C314.836476,300.919369 312.368809,304.643344 308.772255,306.452184 L308.772253,321.546058 L298.900699,321.546058 L298.900698,306.452184 C295.304144,304.643344 292.836476,300.919369 292.836476,296.61904 C292.836476,290.543907 297.761344,285.61904 303.836476,285.61904 Z" id="Combined-Shape" fill="#FFFFFF"></path>
                <g id="Group-20" transform="translate(246.086476, 178.169376)">
                    <path d="M22.0483126,26.2550473 C20.7149793,24.921714 18.7149793,24.7550473 16.0483126,25.7550473 C12.0483126,27.2550473 9.5483126,27.7550473 6.5483126,26.7550473 C3.5483126,25.7550473 0.548312596,23.2550473 0.0483125961,19.2550473 C-0.451687404,15.2550473 3.0483126,9.25504729 5.0483126,6.75504729 C7.0483126,4.25504729 15.0483126,-1.24495271 21.0483126,0.255047288 C25.0483126,1.25504729 27.3816459,3.25504729 28.0483126,6.25504729 C28.7149793,9.58838062 28.0483126,13.0883806 26.0483126,16.7550473 C25.3816459,18.0883806 25.7149793,19.5883806 27.0483126,21.2550473 L60.136296,53.4109748 C61.4830995,54.7198402 61.5546505,56.8591163 60.2983126,58.2550473 C59.093982,59.5931924 57.0328981,59.7016705 55.694753,58.4973399 C55.6694655,58.4745811 55.6445358,58.4514279 55.6199731,58.4278886 L22.0483126,26.2550473 L22.0483126,26.2550473 Z" id="Path-391" fill="#00B0C7"></path>
                    <ellipse id="Oval" fill="#E9EFF4" transform="translate(14.958650, 14.202767) rotate(-39.000000) translate(-14.958650, -14.202767) " cx="14.9586498" cy="14.2027671" rx="6.35785411" ry="4.74461961"></ellipse>
                    <path d="M41.0483126,44.2550473 L36.5483126,49.2550473 L41.0483126,53.2550473 L45.0483126,52.7550473 C46.3816459,52.7550473 46.8816459,53.2550473 46.5483126,54.2550473 C45.8816459,55.2550473 45.2149793,56.0883806 44.5483126,56.7550473 L50.0483126,62.7550473 L55.0483126,57.7550473 L41.0483126,44.2550473 Z" id="Path-392" fill="#00B0C7"></path>
                </g>
                <rect id="Rectangle" fill="#F58982" x="217.180238" y="344.630388" width="12.0475637" height="12.3795721"></rect>
                <rect id="Rectangle-Copy-5" fill="#F58982" x="217.180238" y="369.239011" width="12.0475637" height="12.3795721"></rect>
                <rect id="Rectangle-Copy-7" fill="#F58982" x="248.579507" y="369.239011" width="12.0475637" height="12.3795721"></rect>
                <circle id="Oval" fill="#00B0C7" cx="250.118189" cy="355.567598" r="8.47773526"></circle>
                <rect id="Rectangle" fill="#F58982" x="341.01295" y="154.161071" width="12.0475637" height="12.3795721"></rect>
                <rect id="Rectangle-Copy-9" fill="#F58982" x="372.952436" y="154.161071" width="12.0475637" height="12.3795721"></rect>
                <rect id="Rectangle-Copy-10" fill="#F58982" x="372.952436" y="179.210228" width="12.0475637" height="12.3795721"></rect>
                <path d="M584.387672,296.718648 L619.887672,283.218648 L654.887672,294.718648 C660.102113,354.079362 639.297596,361.507227 619.887672,371.718648 C597.246148,363.183821 579.553708,347.109569 584.387672,296.718648 Z" id="Path-393" fill="#BEDFF4"></path>
                <polyline id="Path-394" stroke="#FFFFFF" stroke-width="5" stroke-linecap="round" points="605.086476 320.009794 613.586476 330.009794 637.086476 314.009794"></polyline>
                <g id="Group-25" transform="translate(329.579335, 63.236209)">
                    <g id="Group-3">
                        <g id="Group-10" stroke="#000000">
                            <path d="M130.528995,374.773138 C125.940953,375.126065 123.039114,376.753447 121.823479,379.655286 C121.764658,379.831749 120.941163,382.890444 123.117542,385.302107 C125.293921,387.71377 125.940953,387.302023 126.293879,389.243118 C126.646805,391.184213 124.176321,394.066444 127.058553,398.536844 C129.940784,403.007244 132.47009,408.124676 133.999437,408.595245 C135.019002,408.908957 135.705248,407.77175 136.058174,405.183623 C135.705248,393.889981 135.528785,387.752984 135.528785,386.772633 C135.528785,385.302107 135.469964,381.890486 135.764069,381.00817 C134.940525,379.895935 133.979781,377.5627 132.881837,374.008465 L130.528995,374.773138 Z" id="Path-291-Copy-3" stroke-width="0.66" fill="#FFFFFF" transform="translate(128.840279, 391.327291) rotate(-62.000000) translate(-128.840279, -391.327291) "></path>
                            <path d="M25.8652738,373.913512 C21.2772316,374.266439 18.3753929,375.893821 17.1597578,378.79566 C17.1009367,378.972123 16.2774419,382.030818 18.453821,384.442481 C20.6302,386.854144 21.2772316,386.442397 21.6301579,388.383492 C21.9830842,390.324587 19.5125999,393.206818 22.3948316,397.677218 C25.2770633,402.147619 27.8063686,407.26505 29.335716,407.735619 C30.355281,408.049331 31.0415266,406.912124 31.394453,404.323998 C31.0415266,393.030355 30.8650635,386.893358 30.8650635,385.913008 C30.8650635,384.442481 30.8062424,381.03086 31.1003477,380.148544 C30.2768039,379.036309 29.31606,376.703074 28.218116,373.148839 L25.8652738,373.913512 Z" id="Path-291-Copy-4" stroke-width="0.66" fill="#FFFFFF" transform="translate(24.176558, 390.467665) rotate(-61.000000) translate(-24.176558, -390.467665) "></path>
                            <path d="M90.0341044,122.840743 L93.8114616,130.60927 C113.909852,134.1253 129.613205,132.177229 140.92152,124.765057 C140.92152,124.860085 139.329803,119.087143 136.14637,107.446231 L119.896607,41.9482831 L101.223634,45.6543693 L101.223634,60.9776106 L90.0341044,122.840743 Z" id="Path-302-Copy" stroke-width="0.66" fill="#FFFFFF"></path>
                            <path d="M101.553152,23.7158841 L103.05442,41.3140803 L97.2995592,41.9813105 C100.024082,49.5988551 103.49924,53.7690438 107.725031,54.4918765 C111.950822,55.2147092 115.398178,54.2972677 118.067099,51.739552 C120.402404,48.9038237 120.207796,45.0116476 117.483272,40.0630237 C117.538875,39.9518186 116.121011,39.9518186 113.22968,40.0630237 C110.449554,36.8936803 109.059491,32.2786715 109.059491,26.2179973 C109.115094,26.0511897 106.612981,25.217152 101.553152,23.7158841 Z" id="Path-297-Copy" stroke-width="0.66" fill="#FFFFFF" transform="translate(108.491704, 39.223331) rotate(2.000000) translate(-108.491704, -39.223331) "></path>
                            <path d="M95.0329048,24.2446137 C96.1598037,27.0390525 97.4058475,28.613169 99.1842808,30.2824071 C103.495488,32.4737627 107.045317,33.8222084 109.83377,34.3277443 C114.01645,35.0860482 115.431383,36.2068813 118.00282,32.6997592 C119.717112,30.3616779 120.719529,26.4936437 121.010071,21.0956566 C119.903156,15.1245649 119.037135,8.89912297 117.019093,3.89005759 C113.809542,4.6732722 110.389453,3.9926187 106.758825,1.84809709 C97.2462469,-3.91023267 96.946258,6.70948721 96.8581731,9.23190729 C96.7700883,11.7543274 94.8528837,17.6300366 94.7354081,17.4230386 C94.6179326,17.2160406 91.4879295,11.7994609 90.2062147,13.4383664 C88.9244999,15.077272 86.8223614,18.2946616 88.328776,21.1788836 C89.3330525,23.1016982 91.567762,24.1236083 95.0329048,24.2446137 Z" id="Path-292-Copy" stroke-width="0.66" fill="#FFFFFF"></path>
                            <path d="M100.356317,14.2519969 C101.750624,12.3109024 103.599671,11.2275198 105.903457,11.0018491" id="Path-294-Copy" stroke-linecap="round"></path>
                            <path d="M110.284388,10.4660629 C112.354778,9.41591981 114.444056,9.48887898 116.55222,10.6849404" id="Path-295-Copy" stroke-linecap="round"></path>
                            <path d="M102.170583,17.2694993 C102.852972,15.4365258 104.274979,14.3139189 106.436605,13.9016783" id="Path-296-Copy"></path>
                            <path d="M111.24308,12.8284847 C112.834405,11.9446391 114.498196,12.0018602 116.234453,13.000148" id="Path-296-Copy-2"></path>
                            <path d="M105.431002,24.5311931 C110.31585,24.9058563 114.032871,23.6581142 116.582065,20.7879669 C116.584734,20.7115299 117.02273,25.701287 114.214945,27.2103708 C112.343088,28.2164267 109.415107,27.3233675 105.431002,24.5311931 Z" id="Path-298-Copy" fill="#FFFFFF"></path>
                            <path d="M125.241924,42.019554 L144.12871,73.3074745 L170.213855,54.2068761 C169.54866,58.9107548 171.544398,62.7593828 176.201068,65.7527602 C176.248276,65.8002741 165.24865,75.3505733 143.202188,94.4036578 L131.37122,80.0069381 L125.241924,42.019554 Z" id="Path-308-Copy" stroke-width="0.66" fill="#FFFFFF"></path>
                            <path d="M111.82623,16.7188501 L113.040243,19.2102102 C112.698905,20.2186929 111.670848,20.437893 109.956072,19.8678104" id="Path-299-Copy" stroke-linecap="round"></path>
                            <circle id="Oval-Copy-2" fill="#000000" transform="translate(104.187597, 15.993872) rotate(2.000000) translate(-104.187597, -15.993872) " cx="104.187597" cy="15.9938724" r="1"></circle>
                            <circle id="Oval-Copy-3" fill="#000000" transform="translate(113.248443, 13.248126) rotate(2.000000) translate(-113.248443, -13.248126) " cx="113.248443" cy="13.2481264" r="1"></circle>
                            <path d="M88.6799575,44.2289515 C91.625821,42.2808806 95.3556642,41.3068451 99.8694872,41.3068451 C99.9407581,41.3068451 112.341893,73.0936618 110.417579,98.7511821 C110.560121,98.7511821 109.70487,113.290444 96.4484845,126.047933 C96.4009706,126.142961 92.3385299,125.382738 84.2611624,123.767264 C85.781608,106.519709 85.781608,93.1682957 84.2611624,83.7130244 C84.2611624,83.5704826 84.9501143,82.3351205 86.3280182,80.0069381 C89.653993,84.7108168 92.3385299,84.3307054 94.3816287,78.8666039 C97.7076035,65.5151906 95.8070465,53.9693065 88.6799575,44.2289515 Z" id="Path-300-Copy" stroke-width="0.66" fill="#FFFFFF"></path>
                            <path d="M117.473397,40.3803235 C117.838844,41.2979332 122.177276,52.2112912 123.175068,59.4809219 C124.172861,66.7505527 127.522592,88.4169031 130.658511,95.7578047 C132.749124,100.651739 134.673438,105.878271 136.431454,111.4374 C138.759636,111.91254 140.232568,111.532428 140.850249,110.297066 C141.77677,108.444023 134.293327,85.8511511 134.293327,72.6660365 C134.293327,63.8759601 131.276193,53.6604659 125.241924,42.019554 C119.819275,40.3149939 117.229766,39.7685837 117.473397,40.3803235 Z" id="Path-301-Copy" stroke-width="0.66" fill="#FFFFFF"></path>
                            <path d="M87.1832688,131.46452 C87.9687331,131.267365 88.64312,130.838992 89.036312,129.82529 L86.5418308,126.6181 C86.60867,128.435413 86.7908175,130.094372 87.1832688,131.46452 Z" id="Path-305-Copy" fill="#A2A0A0"></path>
                            <path d="M90.8180842,114.787132 C89.9484242,115.637156 89.286163,116.588266 88.6799575,117.566697 L91.1031678,118.63576 C91.2691679,117.251 91.4504062,115.860292 90.8180842,114.787132 Z" id="Path-306-Copy" fill="#A2A0A0"></path>
                            <path d="M86.3280182,80.0069381 C87.0407271,78.1063811 87.8247069,76.9422899 88.6799575,76.5146645" id="Path-307-Copy" stroke-linecap="round"></path>
                            <path d="M170.000043,55.9173774 C174.228782,53.9693065 176.913319,52.1400203 178.053653,50.4295189 C179.764154,47.8637669 181.04703,46.7947036 181.04703,45.0842022 C181.04703,43.943868 180.595648,42.5659641 179.692884,40.9504906 C179.122716,39.0499336 179.882939,38.2421968 181.973552,38.5272804 C183.185157,39.2399893 185.964722,42.019554 185.608367,46.5808909 C185.679638,46.5808909 190.312246,46.1532656 191.523851,48.2913923 C192.735456,50.4295189 192.949269,57.1289826 191.523851,58.8394839 C190.098433,60.5499853 188.031578,61.8328613 183.612782,60.7637979 C183.660296,60.716284 180.286808,61.7378334 173.492316,63.8284462 C171.525413,61.8042644 169.914751,59.5081398 170.000043,55.9173774 Z" id="Path-309-Copy" stroke-width="0.66" fill="#FFFFFF"></path>
                            <path d="M188.744286,49.3604556 C186.273562,51.7361519 184.515547,53.0665419 183.470241,53.3516254 C182.424934,53.636709 181.997309,54.9433419 182.187365,57.2715243 L183.470241,60.7637979" id="Path-310-Copy" stroke-width="0.66" stroke-linecap="round"></path>
                            <path d="M144.256953,126.840331 C147.641771,155.849723 146.137407,191.165506 139.743862,232.787678 C135.230771,252.968125 130.905726,274.40985 126.768726,297.112853 C121.879544,346.302693 120.187135,373.209956 121.691499,377.834641 C121.691499,377.414215 121.691499,378.46528 121.691499,380.987836 L109.844635,380.987836 C98.1858173,337.68396 94.2368629,309.725632 97.9977719,297.112853 C97.9977719,296.482214 102.510863,275.040489 112.101181,263.058349 C112.101181,262.637923 110.596817,251.706847 107.58809,230.265122 C101.946726,188.64295 99.8782264,164.888882 101.38259,159.002918 C102.886954,153.116955 104.955454,144.077796 107.58809,131.885443 C120.386272,132.417429 132.940122,132.009136 144.256953,126.840331 Z" id="Path-231-Copy" stroke-width="0.6561" fill="#FFFFFF" transform="translate(121.318142, 253.914083) rotate(-2.000000) translate(-121.318142, -253.914083) "></path>
                            <g id="Group-7" transform="translate(0.000000, 129.554405)" fill="#FFFFFF" stroke-width="0.6561">
                                <path d="M93.5353226,3.16508003 C93.1925671,5.44749063 92.8193365,7.79715723 92.4156308,10.2140798 C91.8100721,13.8394637 90.7985354,19.6362365 87.4797364,26.1258445 C84.1609373,32.6154525 87.2872449,47.365659 87.4797364,48.4780855 C87.6722279,49.5905119 55.9627217,121.12335 51.1182527,127.769887 C46.2737837,134.416424 13.573618,156.168727 6.91247311,225.655251 C6.91247311,225.655251 6.10506161,232.906019 4.49023861,247.407554 L15.9958525,247.407554 C26.492202,218.807304 34.9700227,200.277564 41.4293147,191.818335 C40.8237561,191.214104 97.7462668,112.05989 100.168501,99.3710464 C102.590736,86.6822028 134.685343,42.5733657 134.685343,2.69414317 C126.408736,4.57057498 112.692063,4.72755393 93.5353226,3.16508003 Z" id="Path-230-Copy" transform="translate(69.587791, 125.050849) rotate(-2.000000) translate(-69.587791, -125.050849) "></path>
                            </g>
                            <path d="M81.5930692,126.06289 C84.7896733,125.834561 88.3858529,124.407506 92.381608,121.781724 C96.3773631,119.155942 98.6321106,117.728887 99.1458506,117.500558 C101.885797,114.246871 103.740969,111.335678 104.711367,108.766979 C106.166963,104.913929 108.489898,109.021494 107.925352,111.986337 C107.562459,114.54242 103.940757,115.959338 105.995716,116.729948 C108.050676,117.500558 113.444946,117.243688 113.444946,118.956154 C113.444946,120.668621 114.558049,126.747877 110.276883,129.744693 C107.422772,131.742571 101.45768,132.484639 92.381608,131.970899 L77.568773,137.279546 L81.5930692,126.06289 Z" id="Path-304-Copy" stroke-width="0.66" fill="#FFFFFF" transform="translate(95.571996, 122.240406) rotate(49.000000) translate(-95.571996, -122.240406) "></path>
                            <path d="M88.6799575,44.2289515 C68.2489692,68.6035958 56.4655154,86.1599916 53.3295963,96.8981389 C53.8997634,98.822453 67.4412324,125.263953 87.1832688,131.465265 C87.111998,131.535791 84.1898915,121.415325 90.8180842,114.787132 C90.8655981,114.834646 85.3777396,108.444023 74.3545087,95.6152629 L84.2611624,83.7130244 L86.3280182,80.0069381 C89.4164234,84.7583308 92.1009602,84.3782193 94.3816287,78.8666039 C95.9495883,73.0223909 96.4009706,67.5107755 95.7357756,62.3317575 C95.0246166,56.6758806 93.7906268,50.8994301 88.6799575,44.2289515 Z" id="Path-303-Copy" stroke-width="0.66" fill="#FFFFFF"></path>
                        </g>
                        <path d="M130.736451,129.481091 C134.029293,136.665473 134.029293,146.244649 130.736451,158.218618 C127.443609,170.192588 119.061831,191.446384 105.591115,221.980007 L103.795019,213.897577 C117.855927,187.01615 129.589167,159.558628 130.736451,129.481091 Z" id="Path-368" fill="#000000"></path>
                        <path d="M86.2830887,80.0884666 C90.7733273,79.4897681 93.0184466,74.8498548 93.0184466,66.1687269 C93.0184466,57.4875989 93.0184466,52.5483364 93.0184466,51.3509394 C97.3442433,63.9660365 97.3404749,74.1069184 93.0071416,81.773585 C91.3809393,84.2187671 89.1395883,83.657061 86.2830887,80.0884666 Z" id="Path-369" fill="#000000"></path>
                    </g>
                </g>
                <g id="Group-21" transform="translate(133.194554, 130.210522)" fill="#FFD6D4">
                    <path d="M31.3156917,21.8405385 L66.3266311,24.852173 C76.026372,25.6865429 83.7161853,33.3841662 84.5407085,43.084749 L85.0845724,49.4833529 C86.0015569,60.2717513 77.9991948,69.7608391 67.2107964,70.6778236 C66.0992684,70.7723005 64.9817047,70.7717333 63.8702732,70.6761281 L28.8593338,67.6644937 C19.1595929,66.8301238 11.4697796,59.1325005 10.6452565,49.4319176 L10.1013925,43.0333138 C9.184408,32.2449153 17.1867701,22.7558276 27.9751685,21.838843 C29.0866965,21.7443662 30.2042602,21.7449334 31.3156917,21.8405385 Z" id="Rectangle" transform="translate(47.592982, 46.258333) rotate(43.000000) translate(-47.592982, -46.258333) "></path>
                    <path d="M31.3156917,81.4878709 L66.3266311,84.4995054 C76.026372,85.3338753 83.7161853,93.0314985 84.5407085,102.732081 L85.0845724,109.130685 C86.0015569,119.919084 77.9991948,129.408171 67.2107964,130.325156 C66.0992684,130.419633 64.9817047,130.419066 63.8702732,130.32346 L28.8593338,127.311826 C19.1595929,126.477456 11.4697796,118.779833 10.6452565,109.07925 L10.1013925,102.680646 C9.184408,91.8922477 17.1867701,82.4031599 27.9751685,81.4861754 C29.0866965,81.3916985 30.2042602,81.3922658 31.3156917,81.4878709 Z" id="Rectangle-Copy-11" transform="translate(47.592982, 105.905666) rotate(43.000000) translate(-47.592982, -105.905666) "></path>
                    <path d="M31.3156917,142.387164 L66.3266311,145.398799 C76.026372,146.233169 83.7161853,153.930792 84.5407085,163.631375 L85.0845724,170.029979 C86.0015569,180.818377 77.9991948,190.307465 67.2107964,191.22445 C66.0992684,191.318926 64.9817047,191.318359 63.8702732,191.222754 L28.8593338,188.21112 C19.1595929,187.37675 11.4697796,179.679126 10.6452565,169.978544 L10.1013925,163.57994 C9.184408,152.791541 17.1867701,143.302453 27.9751685,142.385469 C29.0866965,142.290992 30.2042602,142.291559 31.3156917,142.387164 Z" id="Rectangle-Copy-12" transform="translate(47.592982, 166.804959) rotate(43.000000) translate(-47.592982, -166.804959) "></path>
                    <path d="M31.3156917,202.295498 L66.3266311,205.307132 C76.026372,206.141502 83.7161853,213.839125 84.5407085,223.539708 L85.0845724,229.938312 C86.0015569,240.726711 77.9991948,250.215798 67.2107964,251.132783 C66.0992684,251.22726 64.9817047,251.226692 63.8702732,251.131087 L28.8593338,248.119453 C19.1595929,247.285083 11.4697796,239.58746 10.6452565,229.886877 L10.1013925,223.488273 C9.184408,212.699875 17.1867701,203.210787 27.9751685,202.293802 C29.0866965,202.199325 30.2042602,202.199893 31.3156917,202.295498 Z" id="Rectangle-Copy-14" transform="translate(47.592982, 226.713293) rotate(43.000000) translate(-47.592982, -226.713293) "></path>
                </g>
                <path d="M413.063743,68.8994291 C414.858765,71.8911331 423.833878,63.5143618 425.030559,69.4977699 C425.406399,71.3769675 426.227241,71.2927923 426.423666,71.4171278 C426.69161,68.1430865 427.423923,65.907725 428.620604,64.7110434 C430.21618,63.1154679 431.811755,62.716574 433.407331,63.5143618 C435.800694,64.7110434 441.784102,68.3010883 447.169169,67.1044066 C448.365851,67.1044066 449.163639,67.7027475 449.562533,68.8994291 C452.753684,65.3093842 451.756449,61.9187863 446.570829,58.7276353 C438.792398,53.9409088 431.612308,50.9492047 421.440514,54.5392496 C407.678676,59.3259761 411.867061,67.1044066 413.063743,68.8994291 Z" id="Path-400" fill="#000000"></path>
            </g>
        </g>
    </g>
</svg>