<svg xmlns="http://www.w3.org/2000/svg" width="22" height="22" viewBox="0 0 22 22">
  <path fill="#666" d="M18.7782031,14.2217969 C17.5801055,13.0237422 16.1540586,11.8594586 14.5981602,11.322564 C16.2645742,10.1748257 17.1154378,8.53135938 17.1154378,6.359375 C17.1154378,2.85282422 14.5065508,0.258110894 11,0.258110894 C7.49344922,0.258110894 4.80877007,2.85282422 4.80877007,6.359375 C4.80877007,8.53135938 5.73542578,10.1748257 7.40188281,11.322564 C5.84598438,11.8594586 4.4199375,13.0237422 3.22183984,14.2217969 C1.14421484,16.2994648 0,19.0617969 0,22 L1.18716092,22 C1.18716092,17.3329671 4.88456217,12.3160672 11,12.3160672 C17.1154378,12.3160672 20.7013889,17.3329671 20.7013889,22 L22,22 C22,19.0617969 20.8557852,16.2994648 18.7782031,14.2217969 Z M11,11.2482639 C8.30427572,11.2482639 6.11111111,9.05514455 6.11111111,6.359375 C6.11111111,3.66360545 8.30427572,1.47048611 11,1.47048611 C13.6957243,1.47048611 15.8888889,3.66360545 15.8888889,6.359375 C15.8888889,9.05514455 13.6957243,11.2482639 11,11.2482639 Z" transform="matrix(-1 0 0 1 22 0)"/>
</svg>
