<?xml version="1.0" ?><svg viewBox="0 0 32 32" xmlns="http://www.w3.org/2000/svg"><title/><g data-name="Layer 2" id="Layer_2"><path d="M19.42,12.93h-2.9V10a.5.5,0,0,0-.5-.5.5.5,0,0,0-.5.5v2.93H12.6a.5.5,0,0,0,0,1h2.92v2.93a.51.51,0,0,0,.5.5.5.5,0,0,0,.5-.5V13.93h2.9a.5.5,0,0,0,0-1Z"/><path d="M20.49,3.5A6.1,6.1,0,0,0,16,5.76,6.21,6.21,0,0,0,11.49,3.5c-4.58,0-7.91,3.09-7.91,7.36a9.26,9.26,0,0,0,1.49,4.81c2.17,3,10.24,12.27,10.58,12.66a.48.48,0,0,0,.37.17h0a.5.5,0,0,0,.38-.17c.35-.39,8.52-9.6,10.69-12.66a9.26,9.26,0,0,0,1.49-4.81C28.58,6.59,25.18,3.5,20.49,3.5Zm5.79,11.59C24.4,17.74,17.69,25.36,16,27.24c-1.65-1.89-8.27-9.5-10.15-12.15a8.27,8.27,0,0,1-1.3-4.23c0-3.75,2.84-6.36,6.91-6.36a5.59,5.59,0,0,1,4.12,2.35.49.49,0,0,0,.41.22.48.48,0,0,0,.42-.22,5.48,5.48,0,0,1,4-2.35c4.11,0,7.09,2.67,7.09,6.36A8.24,8.24,0,0,1,26.28,15.09Z"/><path d="M22.81,6.41a.5.5,0,0,0,0,1,2,2,0,0,1,2.07,2.06.5.5,0,0,0,.5.5.5.5,0,0,0,.5-.5A3,3,0,0,0,22.81,6.41Z"/></g></svg>