<?xml version="1.0" ?><!DOCTYPE svg  PUBLIC '-//W3C//DTD SVG 1.1//EN'  'http://www.w3.org/Graphics/SVG/1.1/DTD/svg11.dtd'><svg enable-background="new 0 0 512 512" version="1.1" viewBox="0 0 512 512" xml:space="preserve" xmlns="http://www.w3.org/2000/svg" xmlns:xlink="http://www.w3.org/1999/xlink"><g id="Layer_1"/><g id="Layer_2"><g><path d="M256.1,424.2c44.9,0,87.1-17.5,118.9-49.3c29.5-29.5,46.9-68.7,49-110.4c0.2-4.1-3-7.7-7.1-7.9c-4.1-0.2-7.7,3-7.9,7.1    c-1.9,37.9-17.8,73.6-44.7,100.5c-28.9,28.9-67.4,44.9-108.3,44.9s-79.4-15.9-108.3-44.9c-59.7-59.7-59.7-156.9,0-216.6    c50.9-50.9,130.1-59.4,190.3-21.1l-16.9,20.7l48.5-4.9l-4.9-48.5l-17.1,21c-66.3-43.2-154.2-34.1-210.5,22.2    c-65.6,65.6-65.6,172.2,0,237.8C169,406.7,211.2,424.2,256.1,424.2z"/><path d="M335.4,221.4c0-0.1,0-0.2-0.1-0.2c0-0.2-0.1-0.3-0.1-0.5c0-0.1-0.1-0.3-0.1-0.4c0-0.1-0.1-0.2-0.1-0.3    c-0.2-0.5-0.4-0.9-0.7-1.3c0,0,0,0,0,0L302.5,172c-1.4-2.1-3.7-3.3-6.2-3.3h-80.6c-2.5,0-4.8,1.2-6.2,3.3l-31.8,46.6c0,0,0,0,0,0    c-0.3,0.4-0.5,0.9-0.7,1.3c0,0.1-0.1,0.2-0.1,0.3c-0.1,0.1-0.1,0.3-0.1,0.4c0,0.2-0.1,0.3-0.1,0.5c0,0.1,0,0.2-0.1,0.2    c-0.1,0.5-0.2,1-0.2,1.5c0,0,0,0,0,0v112.9c0,4.1,3.4,7.5,7.5,7.5H328c4.1,0,7.5-3.4,7.5-7.5V222.9c0,0,0,0,0,0    C335.5,222.3,335.5,221.8,335.4,221.4z M219.7,183.7h72.6l21.5,31.6H198.1L219.7,183.7z M320.5,328.3H191.5v-97.9h129.1V328.3z"/></g></g></svg>