<?xml version="1.0" ?><!DOCTYPE svg  PUBLIC '-//W3C//DTD SVG 1.1//EN'  'http://www.w3.org/Graphics/SVG/1.1/DTD/svg11.dtd'><svg enable-background="new 0 0 512 512" id="Layer_1" version="1.1" viewBox="0 0 512 512" xml:space="preserve" xmlns="http://www.w3.org/2000/svg" xmlns:xlink="http://www.w3.org/1999/xlink"><g><ellipse cx="242.5" cy="412.7" fill="#303A3F" rx="44.3" ry="43.3"/><ellipse cx="379.9" cy="412.7" fill="#303A3F" rx="44.3" ry="43.3"/><path d="M466.9,113H160.1c-0.7,0-1.4,0.2-2.1,0.2l-7.8-39c-1.4-10.3-8.5-16.5-21.8-18.3H16.5   C-9,56-9.7,118.8,48.6,110.7l56.4-0.5l10,46.9c0,0,0,0.1,0,0.1l30.4,150.2c0,24.3,20.3,44.2,45.1,44.2h246   c24.8,0,45.1-19.9,45.1-44.2L512,157.2C512,132.9,491.7,113,466.9,113z M203.3,307.5l-1,0.1c-8.3,1-16.1-4.7-17.2-12.6l-17.4-118.3   c-1.2-8.1,4.9-15.6,13.5-16.6l1-0.1c8.3-1,16.1,4.7,17.2,12.6l17.4,118.3C218,299,211.9,306.5,203.3,307.5z M281.9,307.9l-1.1,0.1   c-8.4,0.6-15.9-5.5-16.5-13.5l-9.9-118.9c-0.7-8.1,5.8-15.3,14.4-15.8l1.1-0.1c8.4-0.6,15.9,5.5,16.5,13.5l9.9,118.9   C297,300.3,290.5,307.4,281.9,307.9z M373,293.7c-0.1,8.1-7.2,14.6-15.7,14.5l-1.1,0c-8.5-0.1-15.4-6.8-15.3-14.9l2-119.2   c0.1-8.1,7.2-14.6,15.7-14.5l1.1,0c8.5,0.1,15.4,6.8,15.3,14.9L373,293.7z M463.7,177.3l-20.3,117.9c-1.3,7.8-9.2,13.3-17.5,12.2   l-1-0.1c-8.6-1.2-14.5-8.8-13.1-16.9L432,172.5c1.3-7.8,9.2-13.3,17.5-12.2l1,0.1C459.2,161.6,465.1,169.2,463.7,177.3z" fill="#303A3F"/></g></svg>