<?xml version="1.0" ?><svg height="64px" id="SVGRoot" version="1.1" viewBox="0 0 64 64" width="64px" xmlns="http://www.w3.org/2000/svg" xmlns:cc="http://creativecommons.org/ns#" xmlns:dc="http://purl.org/dc/elements/1.1/" xmlns:inkscape="http://www.inkscape.org/namespaces/inkscape" xmlns:rdf="http://www.w3.org/1999/02/22-rdf-syntax-ns#" xmlns:sodipodi="http://sodipodi.sourceforge.net/DTD/sodipodi-0.dtd" xmlns:svg="http://www.w3.org/2000/svg"><title id="title7560"/><defs id="defs7542"/><g id="layer1"><path d="m 15.632192,18.26528 c -3.540195,3.540195 -3.857502,9.076285 -0.970891,12.986183 5.378281,5.746753 11.512134,11.68891 17.235728,17.412504 7.604908,-6.240398 13.604908,-12.240397 17.875162,-18.18176 2.376166,-3.67884 1.95923,-8.647372 -1.260915,-11.867516 -3.705792,-3.705792 -9.729236,-3.705793 -13.435029,0 -1.365537,1.365537 -2.217352,3.046352 -2.57431,4.808878 -0.363024,-1.893312 -1.265234,-3.701437 -2.728991,-5.165194 -3.901055,-3.901055 -10.239699,-3.89415 -14.140754,0.0069 z m 0.704345,0.704345 c 3.518906,-3.518906 9.213158,-3.525812 12.732065,-0.0069 1.953,1.953001 2.601931,7.129073 2.601931,7.129073 0,0 0.524799,0.30261 0.865145,0.320136 0.340346,0.01753 0.814784,-0.338148 0.858862,-0.346593 -0.342653,-2.535779 0.43824,-4.787441 2.391576,-6.740776 3.323646,-3.323646 8.697172,-3.329167 12.020815,-0.0055 3.083718,3.083718 3.302796,7.934479 0.664294,11.273657 C 43.501937,37.423569 37.501937,42.423569 31.897029,47.255277 26.623882,41.937866 21.209902,36.646456 16.003699,31.32604 12.832612,27.789211 12.936235,22.369927 16.336537,18.969625 Z" id="path5218" style="color:#000000;font-style:normal;font-variant:normal;font-weight:normal;font-stretch:normal;font-size:medium;line-height:normal;font-family:sans-serif;font-variant-ligatures:normal;font-variant-position:normal;font-variant-caps:normal;font-variant-numeric:normal;font-variant-alternates:normal;font-feature-settings:normal;text-indent:0;text-align:start;text-decoration:none;text-decoration-line:none;text-decoration-style:solid;text-decoration-color:#000000;letter-spacing:normal;word-spacing:normal;text-transform:none;writing-mode:lr-tb;direction:ltr;text-orientation:mixed;dominant-baseline:auto;baseline-shift:baseline;text-anchor:start;white-space:normal;shape-padding:0;clip-rule:nonzero;display:inline;overflow:visible;visibility:visible;opacity:1;isolation:auto;mix-blend-mode:normal;color-interpolation:sRGB;color-interpolation-filters:linearRGB;solid-color:#000000;solid-opacity:1;vector-effect:none;fill:#000000;fill-opacity:1;fill-rule:nonzero;stroke:none;stroke-width:0.99999994;stroke-linecap:butt;stroke-linejoin:miter;stroke-miterlimit:4;stroke-dasharray:none;stroke-dashoffset:0;stroke-opacity:1;color-rendering:auto;image-rendering:auto;shape-rendering:auto;text-rendering:auto;enable-background:accumulate"/><path d="m 18.072266,20.070312 c -1.462463,1.828078 -2.057627,3.45062 -2.033204,4.916016 0.02442,1.465397 0.662026,2.721243 1.492188,3.828125 1.660324,2.213765 4.07644,4.000803 4.699219,5.869141 l 0.949219,-0.316406 c -0.791434,-2.374303 -3.326,-4.123468 -4.847657,-6.152344 -0.760828,-1.014438 -1.273198,-2.057887 -1.292969,-3.244141 -0.01977,-1.186253 0.446536,-2.567935 1.8125,-4.275391 z" id="path5246" style="color:#000000;font-style:normal;font-variant:normal;font-weight:normal;font-stretch:normal;font-size:medium;line-height:normal;font-family:sans-serif;font-variant-ligatures:normal;font-variant-position:normal;font-variant-caps:normal;font-variant-numeric:normal;font-variant-alternates:normal;font-feature-settings:normal;text-indent:0;text-align:start;text-decoration:none;text-decoration-line:none;text-decoration-style:solid;text-decoration-color:#000000;letter-spacing:normal;word-spacing:normal;text-transform:none;writing-mode:lr-tb;direction:ltr;text-orientation:mixed;dominant-baseline:auto;baseline-shift:baseline;text-anchor:start;white-space:normal;shape-padding:0;clip-rule:nonzero;display:inline;overflow:visible;visibility:visible;opacity:1;isolation:auto;mix-blend-mode:normal;color-interpolation:sRGB;color-interpolation-filters:linearRGB;solid-color:#000000;solid-opacity:1;vector-effect:none;fill:#000000;fill-opacity:1;fill-rule:nonzero;stroke:none;stroke-width:0.99999994px;stroke-linecap:butt;stroke-linejoin:miter;stroke-miterlimit:4;stroke-dasharray:none;stroke-dashoffset:0;stroke-opacity:1;color-rendering:auto;image-rendering:auto;shape-rendering:auto;text-rendering:auto;enable-background:accumulate"/></g></svg>